<?xml version="1.0" encoding="UTF-8" standalone="no"?>
<svg
   width="40"
   height="40"
   viewBox="0 0 40 40"
   fill="none"
   version="1.1"
   id="svg3"
   sodipodi:docname="pluginIcon.svg"
   inkscape:version="1.3.2 (091e20e, 2023-11-25, custom)"
   xml:space="preserve"
   xmlns:inkscape="http://www.inkscape.org/namespaces/inkscape"
   xmlns:sodipodi="http://sodipodi.sourceforge.net/DTD/sodipodi-0.dtd"
   xmlns:xlink="http://www.w3.org/1999/xlink"
   xmlns="http://www.w3.org/2000/svg"
   xmlns:svg="http://www.w3.org/2000/svg"><sodipodi:namedview
     id="namedview3"
     pagecolor="#ffffff"
     bordercolor="#000000"
     borderopacity="0.25"
     inkscape:showpageshadow="2"
     inkscape:pageopacity="0.0"
     inkscape:pagecheckerboard="0"
     inkscape:deskcolor="#d1d1d1"
     inkscape:zoom="19.839847"
     inkscape:cx="11.844849"
     inkscape:cy="17.364045"
     inkscape:window-width="3840"
     inkscape:window-height="2054"
     inkscape:window-x="-11"
     inkscape:window-y="-11"
     inkscape:window-maximized="1"
     inkscape:current-layer="svg3" /><defs
     id="defs1"><linearGradient
       id="linearGradient20"
       inkscape:collect="always"><stop
         style="stop-color:#ff0000;stop-opacity:1;"
         offset="0.14840989"
         id="stop20" /><stop
         style="stop-color:#ff0000;stop-opacity:0;"
         offset="1"
         id="stop21" /></linearGradient><linearGradient
       id="swatch13"
       inkscape:swatch="solid"><stop
         style="stop-color:#800000;stop-opacity:1;"
         offset="0"
         id="stop13" /></linearGradient><clipPath
       id="clip"><circle
         cx="20"
         cy="20"
         r="18"
         id="circle1" /></clipPath><filter
       inkscape:collect="always"
       style="color-interpolation-filters:sRGB"
       id="filter3"
       x="-0.0447"
       y="-0.2235"
       width="1.0894"
       height="1.447"><feGaussianBlur
         inkscape:collect="always"
         stdDeviation="0.06"
         id="feGaussianBlur3" /></filter><filter
       inkscape:collect="always"
       style="color-interpolation-filters:sRGB"
       id="filter4"
       x="-0.033642857"
       y="-0.2355"
       width="1.0672857"
       height="1.471"><feGaussianBlur
         inkscape:collect="always"
         stdDeviation="0.08"
         id="feGaussianBlur4" /></filter><filter
       inkscape:collect="always"
       style="color-interpolation-filters:sRGB"
       id="filter5"
       x="-0.0447"
       y="-0.2235"
       width="1.0894"
       height="1.447"><feGaussianBlur
         inkscape:collect="always"
         stdDeviation="0.06"
         id="feGaussianBlur5" /></filter><clipPath
       id="clip-7"><circle
         cx="20"
         cy="20"
         r="18"
         id="circle1-6" /></clipPath><linearGradient
       inkscape:collect="always"
       xlink:href="#linearGradient20"
       id="linearGradient21"
       x1="7.004"
       y1="16"
       x2="24.996"
       y2="16"
       gradientUnits="userSpaceOnUse" /></defs><path
     d="m 10,10 4,4 4,-4 4,4 4,-4 4,4"
     fill="none"
     stroke="#FA6675"
     stroke-width="1.5"
     clip-path="url(#clip)"
     id="path1"
     style="display:inline;mix-blend-mode:normal;stroke:#f9394e;stroke-linecap:round;stroke-linejoin:round;stroke-opacity:1;filter:url(#filter5)" /><path
     d="m 6,18 4,4 4,-4 4,4 4,-4 4,4 4,-4 4,4"
     fill="none"
     stroke="#F2C55C"
     stroke-width="1.5"
     clip-path="url(#clip)"
     id="path2"
     style="display:inline;mix-blend-mode:normal;stroke:#efb631;stroke-linecap:round;stroke-linejoin:round;stroke-opacity:1;filter:url(#filter4)" /><path
     d="m 10,26 4,4 4,-4 4,4 4,-4 4,4"
     fill="none"
     stroke="#6F737A"
     stroke-width="1.5"
     clip-path="url(#clip)"
     id="path3"
     style="display:inline;mix-blend-mode:normal;stroke:#61656b;stroke-linecap:round;stroke-linejoin:round;stroke-opacity:1;filter:url(#filter3)" /><path
     d="M 401.07493,308.00314 H 73.958347 L 417.28664,-35.321231 c 8.95161,-8.955527 8.95161,-23.467898 0,-32.418195 L 156.73978,-328.2876 C 152.43783,-332.58563 146.6104,-335 140.52937,-335 c -6.07841,0 -11.90846,2.41437 -16.20648,6.7124 l -493.60624,493.60886 c -8.95553,8.9516 -8.95553,23.46397 0,32.41819 l 149.39821,149.39429 c 4.29802,4.30194 10.12937,6.71631 16.20648,6.71631 h 604.75359 c 12.65878,0 22.9228,-10.26401 22.9228,-22.9228 0,-12.66139 -10.26402,-22.92411 -22.9228,-22.92411 z M 140.52807,-279.659 368.65674,-51.530329 98.861534,218.26357 -129.26452,-9.8637973 Z M 9.1206487,308.00314 H -194.18327 L -320.65867,181.52774 -161.68272,22.551784 66.445953,250.68046 Z"
     id="path1-6"
     style="display:inline;stroke-width:1.30719" /><g
     style="fill:url(#linearGradient21);paint-order:markers stroke fill;opacity:0.7;stroke-width:0;stroke-dasharray:none;fill-opacity:1"
     id="g8"
     transform="matrix(1.6674077,0,0,1.6666667,-6.4484543,-7.4452025)"><path
       d="M 7.004,23.087 14.084,16.006 7.014,8.935 8.929,7.02 15.996,14.089 23.084,7 24.996,8.913 17.907,16.006 24.982,23.083 23.07,24.996 15.996,17.923 8.917,25 Z"
       id="path1-3"
       style="paint-order:markers stroke fill;fill:url(#linearGradient21);stroke-width:0;stroke-dasharray:none;fill-opacity:1" /></g></svg>
